<?xml version="1.0" standalone="no"?>
<!DOCTYPE svg PUBLIC "-//W3C//DTD SVG 20010904//EN"
 "http://www.w3.org/TR/2001/REC-SVG-20010904/DTD/svg10.dtd">
<svg version="1.0" xmlns="http://www.w3.org/2000/svg"
 width="500.000000pt" height="500.000000pt" viewBox="0 0 500.000000 500.000000"
 preserveAspectRatio="xMidYMid meet">

<g transform="translate(0.000000,500.000000) scale(0.100000,-0.100000)"
fill="#000000" stroke="none">
<path d="M2450 4486 c-25 -7 -371 -202 -770 -433 -399 -230 -744 -430 -767
-443 -22 -12 -52 -37 -65 -54 l-23 -31 -3 -933 c-2 -923 -2 -933 18 -972 14
-27 39 -52 73 -74 29 -18 383 -224 787 -457 718 -414 736 -423 795 -427 l60
-3 710 409 c917 529 865 497 893 552 22 44 22 49 22 442 l0 399 -22 8 c-29 11
-30 11 -180 -77 l-126 -73 -4 -232 c-3 -217 -4 -235 -25 -274 -13 -23 -35 -50
-50 -61 -79 -55 -1197 -692 -1232 -702 -30 -8 -52 -8 -81 0 -38 10 -1171 657
-1236 706 -18 13 -41 43 -53 67 -21 43 -21 52 -21 753 0 671 1 711 19 750 10
23 34 53 52 67 67 49 1200 696 1239 707 28 7 52 8 78 1 32 -9 1114 -624 1224
-697 21 -13 48 -43 60 -67 22 -41 23 -51 26 -364 4 -392 -6 -371 138 -292 52
29 116 66 142 83 l47 31 3 348 c3 384 1 394 -59 440 -19 14 -61 41 -94 60 -33
19 -372 215 -752 435 -381 221 -705 404 -720 408 -16 3 -35 7 -43 9 -8 2 -35
-2 -60 -9z"/>
<path d="M2436 3808 c-16 -6 -229 -127 -474 -268 -288 -167 -450 -266 -458
-281 -20 -36 -17 -75 9 -102 17 -19 798 -476 914 -536 12 -6 46 -11 75 -11 51
0 68 9 400 200 191 110 352 200 358 200 7 0 10 -144 10 -439 l0 -438 -327
-188 c-406 -234 -394 -228 -458 -223 -45 4 -94 29 -389 199 -247 142 -341 201
-352 221 -11 21 -14 84 -14 300 0 150 -4 278 -8 284 -11 16 -266 164 -283 164
-38 0 -39 -11 -39 -482 0 -423 1 -459 18 -475 9 -10 242 -148 517 -308 l500
-289 65 -1 65 0 507 294 c361 209 509 301 517 318 14 30 16 1220 2 1256 -6 16
-55 50 -161 110 -84 48 -158 87 -164 87 -6 0 -144 -77 -306 -171 -379 -219
-403 -231 -460 -231 -50 0 -76 11 -240 105 -125 71 -140 83 -140 113 0 27 14
37 183 134 110 63 137 74 185 78 49 3 65 -1 116 -27 32 -17 67 -31 77 -31 19
0 252 130 278 155 34 33 7 57 -186 167 -104 59 -201 112 -216 118 -35 12 -83
12 -121 -2z"/>
</g>
</svg>
