<?xml version="1.0" standalone="no"?>
<!DOCTYPE svg PUBLIC "-//W3C//DTD SVG 20010904//EN"
 "http://www.w3.org/TR/2001/REC-SVG-20010904/DTD/svg10.dtd">
<svg version="1.0" xmlns="http://www.w3.org/2000/svg"
 width="500.000000pt" height="500.000000pt" viewBox="0 0 500.000000 500.000000"
 preserveAspectRatio="xMidYMid meet">

<g transform="translate(0.000000,500.000000) scale(0.100000,-0.100000)"
fill="#000000" stroke="none">
<path d="M1960 3464 c-157 -91 -295 -172 -307 -180 l-23 -14 0 -368 0 -369 23
-20 c19 -17 488 -292 574 -336 17 -9 40 -14 50 -10 10 3 131 71 268 151 138
79 269 155 292 169 24 13 47 32 53 43 13 24 13 317 0 325 -5 3 -34 -10 -65
-29 l-55 -36 0 -93 c0 -77 -3 -97 -17 -109 -34 -28 -473 -278 -490 -278 -19 0
-442 242 -484 277 l-29 25 0 283 c0 255 2 285 18 303 25 28 469 282 494 282
20 0 410 -219 476 -267 l32 -24 0 -130 c0 -101 3 -131 14 -135 7 -3 37 9 65
26 l51 32 0 138 0 139 -32 24 c-31 24 -497 296 -565 331 -18 9 -38 16 -45 16
-7 0 -141 -75 -298 -166z"/>
<path d="M2180 3334 c-204 -114 -300 -175 -300 -194 0 -14 32 -38 118 -88 177
-105 247 -142 267 -142 10 0 77 34 148 75 71 41 131 75 133 75 2 0 4 -76 4
-168 l0 -168 -132 -77 c-73 -42 -143 -77 -156 -77 -13 0 -72 28 -130 62 -179
103 -162 81 -162 211 l0 112 -51 28 c-78 45 -79 43 -79 -146 0 -115 4 -168 13
-180 6 -9 98 -67 202 -127 142 -83 196 -110 215 -106 14 3 112 55 218 116
l192 112 0 244 0 243 -61 36 c-33 19 -62 35 -65 35 -3 0 -63 -34 -134 -75 -74
-43 -140 -75 -155 -75 -36 0 -145 60 -145 80 0 19 109 80 143 80 14 0 37 -5
50 -11 19 -9 31 -6 72 18 27 16 50 34 52 40 5 14 -144 103 -172 103 -11 0 -49
-16 -85 -36z"/>
</g>
</svg>
