<?xml version="1.0" standalone="no"?>
<!DOCTYPE svg PUBLIC "-//W3C//DTD SVG 20010904//EN"
 "http://www.w3.org/TR/2001/REC-SVG-20010904/DTD/svg10.dtd">
<svg version="1.0" xmlns="http://www.w3.org/2000/svg"
 width="500.000000pt" height="500.000000pt" viewBox="0 0 500.000000 500.000000"
 preserveAspectRatio="xMidYMid meet">

<g transform="translate(0.000000,500.000000) scale(0.100000,-0.100000)"
fill="#000000" stroke="none">
<path d="M2010 4475 c-245 -142 -579 -334 -744 -429 -212 -122 -306 -181 -325
-205 l-26 -34 -3 -866 c-2 -569 1 -878 7 -901 6 -20 25 -49 43 -66 18 -17 359
-219 758 -449 552 -318 734 -419 766 -423 28 -3 55 2 85 15 60 27 1415 809
1458 842 60 46 61 51 61 470 l0 381 -25 6 c-19 5 -54 -11 -152 -68 l-128 -74
-5 -220 c-6 -243 -12 -271 -73 -317 -18 -13 -281 -167 -586 -342 -495 -284
-560 -319 -606 -323 -38 -3 -62 1 -91 16 -100 51 -1122 646 -1142 665 -54 50
-52 24 -52 763 0 674 0 687 21 723 11 20 34 46 52 58 18 12 280 164 582 339
531 306 552 317 610 321 l60 4 580 -334 c510 -294 584 -339 610 -376 l30 -43
3 -306 c2 -196 7 -311 14 -319 18 -22 40 -15 168 60 l125 72 3 338 c3 373 3
373 -61 421 -18 14 -64 43 -103 64 -38 21 -359 206 -714 412 -601 348 -649
374 -700 377 l-55 4 -445 -256z"/>
<path d="M2399 4061 c-140 -75 -807 -465 -826 -483 -31 -29 -31 -87 0 -116 34
-32 837 -493 883 -508 44 -13 90 -8 134 16 14 7 156 89 317 182 160 92 299
171 307 174 14 6 16 -35 16 -412 l-1 -419 -295 -170 c-377 -217 -398 -227
-449 -219 -52 7 -670 359 -694 394 -14 21 -16 63 -18 290 -2 253 -3 266 -23
282 -33 27 -235 138 -251 138 -38 0 -39 -13 -39 -451 l0 -428 23 -24 c12 -14
231 -145 487 -293 432 -249 469 -268 521 -272 40 -3 65 1 90 13 115 60 918
531 939 551 l25 24 3 563 c2 379 0 574 -8 599 -10 34 -22 43 -153 118 -78 45
-149 82 -157 83 -8 0 -158 -82 -333 -182 -175 -101 -336 -188 -358 -194 -56
-14 -93 -1 -241 84 -137 79 -158 94 -158 119 0 24 19 38 173 125 167 94 199
99 300 45 l62 -33 127 73 c70 39 132 78 138 85 25 30 -2 55 -163 148 -89 52
-176 102 -194 111 -51 26 -121 21 -184 -13z"/>
<path d="M1370 495 l0 -235 35 0 35 0 0 95 0 95 115 0 115 0 0 30 0 30 -115 0
-115 0 0 80 0 80 130 0 130 0 0 30 0 30 -165 0 -165 0 0 -235z"/>
<path d="M1800 495 l0 -235 30 0 30 0 0 235 0 235 -30 0 -30 0 0 -235z"/>
<path d="M1996 663 c26 -37 63 -88 81 -112 19 -25 32 -50 29 -57 -4 -10 -120
-172 -159 -221 -7 -10 0 -13 30 -13 38 0 41 3 103 91 35 49 67 92 70 94 4 2
38 -38 75 -90 66 -91 70 -95 106 -95 l39 0 -85 116 c-47 64 -85 120 -85 125 0
5 34 56 75 112 41 57 75 107 75 110 0 4 -14 7 -30 7 -27 0 -39 -11 -97 -91
l-67 -91 -17 24 c-111 151 -113 153 -153 156 l-39 3 49 -68z"/>
<path d="M2387 723 c-4 -3 -7 -17 -7 -30 0 -22 3 -23 80 -23 l80 0 0 -205 0
-205 35 0 35 0 0 205 0 205 80 0 80 0 0 30 0 30 -188 0 c-104 0 -192 -3 -195
-7z"/>
<path d="M2840 495 l0 -235 170 0 170 0 0 30 0 30 -135 0 -135 0 0 75 0 75
115 0 115 0 0 30 0 30 -115 0 -115 0 0 70 0 70 130 0 130 0 0 30 0 30 -165 0
-165 0 0 -235z"/>
<path d="M3290 496 l0 -236 30 0 30 0 0 70 0 70 78 0 c99 0 145 13 190 54 33
31 36 39 40 97 3 55 0 69 -20 99 -38 57 -85 74 -225 78 l-123 4 0 -236z m250
156 c65 -32 77 -113 24 -163 -23 -21 -37 -24 -120 -27 l-94 -4 0 106 0 106 78
0 c53 0 88 -5 112 -18z"/>
</g>
</svg>
