<svg width="800" height="600" xmlns="http://www.w3.org/2000/svg" style="vector-effect: non-scaling-stroke;" stroke="null">
 <g stroke="null">
  <title stroke="null">Layer 1</title>
  <g stroke="null">
   <g stroke="null" fill="#000000" transform="translate(0 500) scale(0.1 -0.1)">
    <path stroke="null" fill="#ffffff" d="m3811.1445,4774.13809c-41.44911,-10.06528 -615.10472,-290.45531 -1276.63244,-622.60966c-661.52772,-330.71645 -1233.52537,-618.29596 -1271.65854,-636.98863c-36.47521,-17.25477 -86.21414,-53.20221 -107.76767,-77.64647l-38.13318,-44.57483l-4.97389,-1341.55845c-3.31593,-1327.17948 -3.31593,-1341.55845 29.84336,-1397.63646c23.2115,-38.82323 64.6606,-74.77067 121.03139,-106.40442c48.08096,-25.88216 635.00029,-322.08906 1304.81783,-657.1192c1190.4183,-595.2896 1220.26165,-608.23068 1318.08154,-613.98227l99.47785,-4.31369l1177.15458,588.10011c1520.35317,760.64783 1434.13904,714.6351 1480.56203,793.71947c36.47521,63.26749 36.47521,70.45698 36.47521,635.55073l0,573.72114l-36.47521,11.50318c-48.08096,15.81687 -49.73893,15.81687 -298.43356,-110.71811l-208.90349,-104.96652l-6.63186,-333.59224c-4.97389,-312.02378 -6.63186,-337.90593 -41.44911,-393.98394c-21.55353,-33.07164 -58.02875,-71.89488 -82.89821,-87.71175c-130.97917,-79.08437 -1984.58315,-995.02513 -2042.6119,-1009.40411c-49.73893,-11.50318 -86.21414,-11.50318 -134.2951,0c-63.00264,14.37898 -1941.47608,944.69872 -2049.24376,1015.1557c-29.84336,18.69267 -67.97653,61.8296 -87.8721,96.33914c-34.81725,61.8296 -34.81725,74.77067 -34.81725,1082.73689c0,964.82928 1.65796,1022.34519 31.50132,1078.42319c16.57964,33.07164 56.37078,76.20857 86.21414,96.33914c111.0836,70.45698 1989.55704,1000.77672 2054.21765,1016.5936c46.423,10.06528 86.21414,11.50318 129.32121,1.4379c53.05485,-12.94108 1846.97212,-897.2481 2029.34818,-1002.21462c34.81725,-18.69267 79.58228,-61.8296 99.47785,-96.33914c36.47521,-58.9538 38.13318,-73.33278 43.10707,-523.39472c6.63186,-563.65586 -9.94779,-533.46001 228.79906,-419.8661c86.21414,41.69903 192.32385,94.90124 235.43092,119.3455l77.92432,44.57483l4.97389,500.38836c4.97389,552.15267 1.65796,566.53165 -97.81989,632.67494c-31.50132,20.13057 -101.13582,58.9538 -155.84864,86.27386c-54.71282,27.32005 -616.76268,309.14798 -1246.78908,625.48545c-631.68436,317.77537 -1168.86476,580.91063 -1193.73423,586.66222c-26.52743,4.31369 -58.02875,10.06528 -71.29246,12.94108c-13.26371,2.8758 -58.02875,-2.8758 -99.47785,-12.94108z"/>
    <path stroke="null" fill="#ffffff" d="m3787.933,3799.24353c-26.52743,-8.62739 -379.6738,-182.61299 -785.87503,-385.35655c-477.49369,-240.1289 -746.08389,-382.48076 -759.34761,-404.04922c-33.15928,-51.76431 -28.18539,-107.84232 14.92168,-146.66555c28.18539,-27.32005 1323.05543,-684.43925 1515.37928,-770.71311c19.89557,-8.62739 76.26635,-15.81687 124.34732,-15.81687c84.55617,0 112.74157,12.94108 663.18568,287.57952c316.67116,158.16873 583.6034,287.57952 593.55118,287.57952c11.60575,0 16.57964,-207.05725 16.57964,-631.23704l0,-629.79914l-542.15429,-270.32475c-673.13347,-336.46804 -653.2379,-327.84065 -759.34761,-320.65116c-74.60839,5.75159 -155.84864,41.69903 -644.94808,286.14162c-409.51716,204.18146 -565.36579,289.01742 -583.6034,317.77537c-18.23761,30.19585 -23.2115,120.7834 -23.2115,431.36928c0,215.68464 -6.63186,399.73553 -13.26371,408.36292c-18.23761,23.00636 -441.01848,235.8152 -469.20387,235.8152c-63.00264,0 -64.6606,-15.81687 -64.6606,-693.06664c0,-608.23068 1.65796,-659.99499 29.84336,-683.00136c14.92168,-14.37898 401.22734,-212.80884 857.16749,-442.87246l828.9821,-415.5524l107.76767,-1.4379l107.76767,0l840.58785,422.74189c598.52508,300.5206 843.90378,432.80717 857.16749,457.25143c23.2115,43.13693 26.52743,1754.23506 3.31593,1805.99937c-9.94779,23.00636 -91.18803,71.89488 -266.93224,158.16873c-139.26899,69.01908 -261.95834,125.09709 -271.90613,125.09709c-9.94779,0 -238.74685,-110.71811 -507.33705,-245.88049c-628.36843,-314.89957 -668.15957,-332.15434 -762.66353,-332.15434c-82.89821,0 -126.00528,15.81687 -397.91141,150.97925c-207.24553,102.09073 -232.11499,119.3455 -232.11499,162.48243c0,38.82323 23.2115,53.20221 303.40745,192.67828c182.37606,90.58755 227.1411,106.40442 306.72338,112.15601c81.24025,4.31369 107.76767,-1.4379 192.32385,-38.82323c53.05485,-24.44426 111.0836,-44.57483 127.66324,-44.57483c31.50132,0 417.80698,186.92669 460.91405,222.87413c56.37078,47.45062 11.60575,81.96016 -308.38134,240.1289c-172.42828,84.83596 -333.2508,161.04453 -358.12027,169.67192c-58.02875,17.25477 -137.61103,17.25477 -200.61367,-2.8758z"/>
   </g>
  </g>
 </g>

</svg>