<svg width="800" height="600" xmlns="http://www.w3.org/2000/svg">
 <g>
  <title>Layer 1</title>
  <g stroke="null">
   <g stroke="null" fill="#000000" transform="translate(0 500) scale(0.1 -0.1)">
    <path fill="#ffffff" stroke="null" d="m3695,2566.19696c-157,-91 -295,-172 -307,-180l-23,-14l0,-368l0,-369l23,-20c19,-17 488,-292 574,-336c17,-9 40,-14 50,-10c10,3 131,71 268,151c138,79 269,155 292,169c24,13 47,32 53,43c13,24 13,317 0,325c-5,3 -34,-10 -65,-29l-55,-36l0,-93c0,-77 -3,-97 -17,-109c-34,-28 -473,-278 -490,-278c-19,0 -442,242 -484,277l-29,25l0,283c0,255 2,285 18,303c25,28 469,282 494,282c20,0 410,-219 476,-267l32,-24l0,-130c0,-101 3,-131 14,-135c7,-3 37,9 65,26l51,32l0,138l0,139l-32,24c-31,24 -497,296 -565,331c-18,9 -38,16 -45,16c-7,0 -141,-75 -298,-166z"/>
    <path fill="#ffffff" stroke="null" d="m3915,2436.19696c-204,-114 -300,-175 -300,-194c0,-14 32,-38 118,-88c177,-105 247,-142 267,-142c10,0 77,34 148,75c71,41 131,75 133,75c2,0 4,-76 4,-168l0,-168l-132,-77c-73,-42 -143,-77 -156,-77c-13,0 -72,28 -130,62c-179,103 -162,81 -162,211l0,112l-51,28c-78,45 -79,43 -79,-146c0,-115 4,-168 13,-180c6,-9 98,-67 202,-127c142,-83 196,-110 215,-106c14,3 112,55 218,116l192,112l0,244l0,243l-61,36c-33,19 -62,35 -65,35c-3,0 -63,-34 -134,-75c-74,-43 -140,-75 -155,-75c-36,0 -145,60 -145,80c0,19 109,80 143,80c14,0 37,-5 50,-11c19,-9 31,-6 72,18c27,16 50,34 52,40c5,14 -144,103 -172,103c-11,0 -49,-16 -85,-36z"/>
   </g>
  </g>
 </g>

</svg>