<?xml version="1.0" standalone="no"?>
<!DOCTYPE svg PUBLIC "-//W3C//DTD SVG 20010904//EN"
 "http://www.w3.org/TR/2001/REC-SVG-20010904/DTD/svg10.dtd">
<svg version="1.0" xmlns="http://www.w3.org/2000/svg"
 width="500.000000pt" height="500.000000pt" viewBox="0 0 500.000000 500.000000"
 preserveAspectRatio="xMidYMid meet">

<g transform="translate(0.000000,500.000000) scale(0.100000,-0.100000)"
fill="#000000" stroke="none">
<path d="M1960 3464 c-157 -91 -295 -172 -307 -180 l-23 -14 0 -368 0 -369 23
-20 c19 -17 488 -292 574 -336 17 -9 40 -14 50 -10 10 3 131 71 268 151 138
79 269 155 292 169 24 13 47 32 53 43 13 24 13 317 0 325 -5 3 -34 -10 -65
-29 l-55 -36 0 -93 c0 -77 -3 -97 -17 -109 -34 -28 -473 -278 -490 -278 -19 0
-442 242 -484 277 l-29 25 0 283 c0 255 2 285 18 303 25 28 469 282 494 282
20 0 410 -219 476 -267 l32 -24 0 -130 c0 -101 3 -131 14 -135 7 -3 37 9 65
26 l51 32 0 138 0 139 -32 24 c-31 24 -497 296 -565 331 -18 9 -38 16 -45 16
-7 0 -141 -75 -298 -166z"/>
<path d="M2180 3334 c-204 -114 -300 -175 -300 -194 0 -14 32 -38 118 -88 177
-105 247 -142 267 -142 10 0 77 34 148 75 71 41 131 75 133 75 2 0 4 -76 4
-168 l0 -168 -132 -77 c-73 -42 -143 -77 -156 -77 -13 0 -72 28 -130 62 -179
103 -162 81 -162 211 l0 112 -51 28 c-78 45 -79 43 -79 -146 0 -115 4 -168 13
-180 6 -9 98 -67 202 -127 142 -83 196 -110 215 -106 14 3 112 55 218 116
l192 112 0 244 0 243 -61 36 c-33 19 -62 35 -65 35 -3 0 -63 -34 -134 -75 -74
-43 -140 -75 -155 -75 -36 0 -145 60 -145 80 0 19 109 80 143 80 14 0 37 -5
50 -11 19 -9 31 -6 72 18 27 16 50 34 52 40 5 14 -144 103 -172 103 -11 0 -49
-16 -85 -36z"/>
<path d="M1310 1645 l0 -155 45 0 45 0 0 55 0 54 68 3 67 3 3 32 3 32 -68 3
c-65 3 -68 4 -68 28 0 24 2 25 78 28 l77 3 0 34 0 35 -125 0 -125 0 0 -155z"/>
<path d="M1650 1645 l0 -155 50 0 50 0 0 155 0 155 -50 0 -50 0 0 -155z"/>
<path d="M1846 1788 c4 -7 25 -39 46 -70 21 -31 38 -60 38 -63 0 -3 -22 -39
-50 -80 -27 -41 -50 -77 -50 -80 0 -3 24 -5 53 -5 l52 0 29 51 29 51 29 -51
30 -51 59 0 60 0 -49 73 c-27 39 -51 77 -55 83 -4 6 16 44 43 83 l51 71 -55 0
c-54 0 -55 -1 -79 -41 l-25 -41 -24 41 c-23 40 -24 41 -81 41 -44 0 -56 -3
-51 -12z"/>
<path d="M2220 1760 l0 -40 50 0 50 0 0 -115 0 -115 50 0 50 0 0 115 0 115 50
0 50 0 0 40 0 40 -150 0 -150 0 0 -40z"/>
<path d="M2600 1645 l0 -155 135 0 135 0 0 35 0 35 -85 0 c-84 0 -85 0 -85 25
0 24 2 25 70 25 l70 0 0 35 0 35 -70 0 c-68 0 -70 1 -70 25 0 25 1 25 85 25
l85 0 0 35 0 35 -135 0 -135 0 0 -155z"/>
<path d="M2960 1645 l0 -155 50 0 50 0 0 49 0 49 62 4 c51 4 65 9 85 32 35 41
32 108 -6 147 -29 28 -32 29 -135 29 l-106 0 0 -155z m169 67 c14 -27 -5 -52
-39 -52 -28 0 -30 3 -30 35 0 32 2 35 30 35 18 0 33 -7 39 -18z"/>
</g>
</svg>
